<?xml version="1.0" encoding="UTF-8" standalone="no"?>
<svg
   xmlns:dc="http://purl.org/dc/elements/1.1/"
   xmlns:cc="http://creativecommons.org/ns#"
   xmlns:rdf="http://www.w3.org/1999/02/22-rdf-syntax-ns#"
   xmlns:svg="http://www.w3.org/2000/svg"
   xmlns="http://www.w3.org/2000/svg"
   xmlns:sodipodi="http://sodipodi.sourceforge.net/DTD/sodipodi-0.dtd"
   xmlns:inkscape="http://www.inkscape.org/namespaces/inkscape"
   id="svg2343"
   sodipodi:version="0.32"
   inkscape:version="1.0.1 (3bc2e813f5, 2020-09-07)"
   width="210mm"
   height="297mm"
   sodipodi:docname="pion.svg"
   version="1.1">
  <metadata
     id="metadata2348">
    <rdf:RDF>
      <cc:Work
         rdf:about="">
        <dc:format>image/svg+xml</dc:format>
        <dc:type
           rdf:resource="http://purl.org/dc/dcmitype/StillImage" />
      </cc:Work>
    </rdf:RDF>
  </metadata>
  <defs
     id="defs2346" />
  <sodipodi:namedview
     inkscape:window-height="1001"
     inkscape:window-width="1920"
     inkscape:pageshadow="2"
     inkscape:pageopacity="0.0"
     borderopacity="1.0"
     bordercolor="#666666"
     pagecolor="#ffffff"
     id="base"
     inkscape:zoom="1.0051974"
     inkscape:cx="516.62292"
     inkscape:cy="545.65419"
     inkscape:window-x="-9"
     inkscape:window-y="-9"
     inkscape:current-layer="svg2343"
     inkscape:document-rotation="0"
     showgrid="false"
     inkscape:window-maximized="1" />
  <path
     style="opacity:1;fill:#000000;fill-opacity:1;stroke:none;stroke-opacity:1"
     d="M 482.25091,133.1484 C 461.79478,135.09945 434.63398,147.25675 411.84466,197.7734 C 411.2619,196.56538 392.26006,157.86357 347.31341,140.2109 C 348.66882,142.12019 362.64767,164.49912 332.28216,236.61715 C 332.28216,236.61715 315.35165,196.80578 268.59466,166.9609 C 254.47682,242.8443 249.75707,275.68069 272.46966,348.7734 C 268.85373,366.18612 267.85704,382.72872 278.56341,394.7734 C 287.29287,404.59407 299.58897,415.17204 298.09466,421.80465 C 206.93484,452.66826 141.25091,538.99105 141.25091,640.5234 C 141.25091,767.92523 244.66157,871.30463 372.06341,871.30465 C 499.46524,871.30464 602.84467,767.92526 602.84466,640.5234 C 602.84468,539.47338 537.81969,453.47772 447.34466,422.24215 C 446.49898,410.69996 449.60616,404.87322 464.59466,397.7734 C 483.49643,388.81993 476.53823,351.01868 453.65716,338.0859 C 451.40975,336.81562 447.97334,335.3924 443.59466,333.8984 C 443.93833,317.97717 456.25239,302.84623 468.56341,291.30465 C 484.48068,276.38221 488.44922,234.623 478.50091,217.7109 C 468.55262,200.7988 467.23673,179.54617 482.50091,133.1484 C 482.42088,133.15574 482.33114,133.14075 482.25091,133.1484 z M 374.06341,186.86715 C 396.9445,217.70686 391.96404,266.43482 402.90716,267.42965 C 413.85028,268.42448 419.83319,211.71698 447.68841,188.8359 C 463.60567,229.62391 473.53846,256.49641 444.68841,281.36715 C 415.83834,306.23789 418.51488,322.13383 417.81341,340.05465 C 417.14913,357.02499 415.85074,365.94516 392.96966,368.92965 C 370.08858,371.91415 351.16773,340.06164 347.18841,293.30465 C 343.20909,246.54766 378.04273,206.76374 374.06341,186.86715 z M 289.50091,209.74215 C 289.5009,209.74215 304.42761,233.63176 314.37591,260.49215 C 324.32421,287.35255 319.34871,316.19335 350.18841,366.92965 C 350.18488,366.93257 350.16018,366.95821 350.15716,366.9609 C 350.15261,366.96625 350.13147,366.98633 350.12591,366.99215 C 350.12004,366.99786 350.10074,367.0186 350.09466,367.0234 C 350.07903,367.03145 350.04445,367.04867 350.03216,367.05465 C 347.85566,368.02299 323.98793,368.50055 297.43841,340.05465 C 269.58319,310.20976 268.60947,268.43708 289.50091,209.74215 z M 344.68841,449.5234 C 271.07102,537.06838 339.74389,541.87947 394.93841,522.61715 C 449.97997,503.4082 570.51081,531.56933 584.43841,624.5859 C 545.14268,582.80305 464.26126,566.01155 388.96966,643.99215 C 319.33159,716.11728 219.35035,780.00196 177.56341,676.8359 C 147.74978,603.23029 191.98208,462.45618 344.68841,449.5234 z M 508.84466,755.92965 C 487.45581,828.55219 398.41718,855.89741 340.21966,813.61715 C 379.018,808.64299 464.57475,779.30817 508.84466,755.92965 z M 228.81341,773.3359 C 249.2074,783.28418 266.59679,795.19966 279.03216,817.0859 C 256.64848,813.60396 235.77722,796.21697 228.81341,773.3359 z "
     id="path2352" />
  <path
     style="fill:#0000ff;stroke-width:3.97932"
     d="M 313.58988,861.01762 C 231.91147,836.42779 170.56901,774.11032 150.50911,695.34481 123.97989,591.17737 177.8783,479.98265 277.81642,432.70435 c 12.01522,-5.68411 21.84585,-11.90355 21.84585,-13.82099 0,-1.91743 -6.28695,-11.01122 -13.97099,-20.20842 -12.27214,-14.68879 -13.90401,-19.21045 -13.42018,-37.18519 0.30294,-11.25465 -2.33711,-32.10251 -5.86679,-46.32857 -3.52967,-14.22606 -6.45589,-38.40042 -6.5027,-53.72079 -0.0929,-30.41277 7.75306,-89.53466 11.88202,-89.53466 5.02799,0 39.42704,35.39585 50.15805,51.61151 l 10.89223,16.45926 5.6272,-13.14396 c 8.58471,-20.05209 16.89365,-63.56112 14.19311,-74.32093 l -2.40637,-9.58774 12.86315,7.52712 c 13.21156,7.73101 40.86366,35.50856 45.41662,45.62266 1.76738,3.92611 3.23115,4.26378 4.74614,1.09486 8.75821,-18.31977 34.10693,-47.74873 46.73584,-54.25864 8.30623,-4.28167 15.88605,-7.00104 16.84405,-6.04304 0.958,0.958 -0.0183,7.87882 -2.16945,15.3796 -5.88176,20.50849 -4.71511,51.1126 2.68735,70.49566 9.03031,23.64552 2.66808,51.7778 -16.5107,73.00642 -20.22875,22.39081 -21.95879,33.97493 -6.841,45.80638 14.66012,11.47327 23.10571,33.36402 17.15897,44.47561 -2.23412,4.17448 -8.61147,10.57087 -14.17191,14.21421 -18.42942,12.07542 -13.16857,22.67263 18.84815,37.96679 59.7268,28.53109 107.12366,92.01144 120.56034,161.47091 20.9139,108.11194 -44.29924,218.65687 -151.77801,257.28399 -33.25762,11.95256 -98.1397,13.95833 -131.04751,4.05122 z m 138.33026,-36.87681 c 9.27472,-4.64395 22.8398,-14.07023 30.14462,-20.94733 12.64128,-11.90111 28.50135,-37.5003 28.50135,-46.00306 0,-2.18429 -11.79898,1.32244 -26.21996,7.79269 -34.79332,15.61071 -102.86,38.63938 -124.08748,41.98193 -9.35016,1.47231 -17.9145,4.15616 -19.03187,5.96408 -2.35034,3.80295 18.59721,15.4501 36.03216,20.03443 18.6301,4.89858 56.10058,0.47068 74.66118,-8.82274 z M 267.2794,797.9641 c -11.79795,-12.27691 -30.78852,-25.18136 -37.05758,-25.18136 -4.65621,0 -1.81763,9.23886 6.37251,20.74084 9.3464,13.12578 40.22104,29.43509 42.62303,22.51526 0.79273,-2.28377 -4.57935,-10.41742 -11.93796,-18.07474 z m 16.56175,-74.20779 c 30.00551,-12.3454 54.02422,-29.52682 98.98892,-70.81025 41.50366,-38.10575 66.40129,-52.94873 99.17568,-59.12455 31.65435,-5.9648 68.43492,4.08011 91.21894,24.9122 11.83497,10.82108 14.84962,6.76719 8.79051,-11.82088 -15.87616,-48.7045 -67.92198,-84.62859 -131.93136,-91.06424 -18.77192,-1.88737 -33.71013,-0.42036 -59.44111,5.83743 -42.15174,10.25133 -55.65541,10.47083 -67.23663,1.09292 -7.51848,-6.0881 -8.53069,-9.61986 -6.24656,-21.79533 1.49921,-7.99145 9.04228,-22.80491 16.76238,-32.9188 7.7201,-10.11388 13.2459,-19.17952 12.27956,-20.14586 -3.87657,-3.87657 -58.82563,10.53977 -78.87553,20.69365 -31.00254,15.70063 -46.49563,28.60813 -65.83495,54.84794 -21.55208,29.24212 -33.14623,65.54568 -33.14623,103.7874 0,34.23331 7.66183,58.94743 24.67265,79.58449 22.57684,27.38964 52.04199,32.88011 90.82373,16.92388 z m 67.55225,-355.4852 c 0,-1.43028 -4.45763,-12.02318 -9.90585,-23.53976 -5.44821,-11.51658 -13.49841,-36.34677 -17.88933,-55.17819 -4.39091,-18.83143 -13.64877,-45.39542 -20.57303,-59.03109 l -12.58954,-24.79213 -5.0107,12.11006 c -10.17883,24.60066 -14.3345,60.77349 -9.60123,83.57353 5.49856,26.48642 29.69392,55.11915 53.68343,63.52886 18.26545,6.40308 21.88625,6.95378 21.88625,3.32872 z m 58.80434,-3.5941 c 6.84927,-4.79741 8.84406,-10.12424 8.84406,-23.61685 0,-23.715 4.38109,-33.54315 25.60505,-57.4402 17.29548,-19.47378 20.31491,-27.683 18.40325,-50.0348 -1.17816,-13.77547 -12.65285,-45.76215 -16.41642,-45.76215 -5.72052,0 -22.37648,27.77065 -31.62335,52.72596 -4.66307,12.58459 -9.90736,22.88108 -11.65398,22.88108 -1.74662,0 -5.28834,-10.73846 -7.87048,-23.86324 -5.21647,-26.51477 -13.98893,-49.88457 -20.15627,-53.6962 -2.22179,-1.37314 -4.03961,0.88172 -4.03961,5.0108 0,4.12908 -4.44204,18.43934 -9.8712,31.80059 -20.31265,49.98974 -20.84688,87.50163 -1.77848,124.87878 11.89391,23.314 31.99369,30.11878 50.55743,17.11623 z"
     id="path7" />
</svg>
