<?xml version="1.0" encoding="UTF-8" standalone="no"?>
<svg
   xmlns:dc="http://purl.org/dc/elements/1.1/"
   xmlns:cc="http://creativecommons.org/ns#"
   xmlns:rdf="http://www.w3.org/1999/02/22-rdf-syntax-ns#"
   xmlns:svg="http://www.w3.org/2000/svg"
   xmlns="http://www.w3.org/2000/svg"
   xmlns:sodipodi="http://sodipodi.sourceforge.net/DTD/sodipodi-0.dtd"
   xmlns:inkscape="http://www.inkscape.org/namespaces/inkscape"
   id="svg1376"
   sodipodi:version="0.32"
   inkscape:version="1.0.1 (3bc2e813f5, 2020-09-07)"
   width="210mm"
   height="297mm"
   sodipodi:docname="spy-blue.svg"
   version="1.0">
  <metadata
     id="metadata1381">
    <rdf:RDF>
      <cc:Work
         rdf:about="">
        <dc:format>image/svg+xml</dc:format>
        <dc:type
           rdf:resource="http://purl.org/dc/dcmitype/StillImage" />
        <dc:title></dc:title>
      </cc:Work>
    </rdf:RDF>
  </metadata>
  <defs
     id="defs1379" />
  <sodipodi:namedview
     inkscape:window-height="1001"
     inkscape:window-width="1920"
     inkscape:pageshadow="2"
     inkscape:pageopacity="0.0"
     borderopacity="1.0"
     bordercolor="#666666"
     pagecolor="#ffffff"
     id="base"
     showguides="true"
     inkscape:guide-bbox="true"
     inkscape:zoom="0.35539096"
     inkscape:cx="887.68443"
     inkscape:cy="313.73573"
     inkscape:window-x="-9"
     inkscape:window-y="-9"
     inkscape:current-layer="svg1376"
     inkscape:document-rotation="0"
     showgrid="false"
     inkscape:window-maximized="1" />
  <path
     style="fill:#0000cc;fill-opacity:1;stroke-width:1.98966"
     d="m 203.50683,934.84591 c -4.02735,-2.48905 0.43173,-14.74839 16.98074,-46.68518 30.54874,-58.95391 86.07556,-151.50302 132.9694,-221.62616 31.10654,-46.51547 34.73506,-53.07864 32.52676,-58.83339 -2.79712,-7.28916 -19.62856,1.84686 -38.81626,21.06925 -5.85974,5.87035 -21.20721,26.37757 -34.10547,45.57159 -12.89825,19.19404 -24.94515,36.13795 -26.77086,37.65318 -5.18052,4.29943 -12.87511,0.3851 -21.40245,-10.88768 -10.30333,-13.62054 -15.19596,-29.54462 -17.71994,-57.67314 -2.36505,-26.35739 -4.43387,-33.98051 -10.03554,-36.97843 -5.48726,-2.9367 -6.77864,-1.29107 -9.84464,12.54518 -6.47259,29.20954 -1.78931,53.09176 19.81257,101.03342 16.40084,36.39882 17.28574,31.89324 -17.38917,88.53982 -17.82755,29.12395 -23.89639,36.80869 -29.06873,36.80869 -1.39641,0 -9.41865,-7.83428 -17.8272,-17.40951 C 148.609,789.02026 101.50224,751.04643 67.331383,734.8787 42.146377,722.96257 35.315926,717.03132 37.367037,708.85904 c 3.396474,-13.53263 22.49428,-24.32814 79.171443,-44.7536 19.40371,-6.99278 35.0688,-13.39605 34.8113,-14.22954 -0.25749,-0.83347 -7.17979,-7.13506 -15.38289,-14.0035 -8.20309,-6.86846 -15.15786,-14.24464 -15.45504,-16.39153 -0.33515,-2.42117 4.64572,-10.13164 13.11702,-20.30534 9.11976,-10.95248 18.55141,-25.82621 28.3876,-44.76733 25.30477,-48.72827 30.94942,-55.14612 51.37512,-58.41232 7.87475,-1.25922 8.44515,-1.75649 7.51239,-6.5493 -0.55517,-2.85264 -2.13135,-13.85605 -3.50262,-24.45201 -2.30918,-17.84341 -2.85247,-19.35557 -7.36051,-20.48703 -33.76312,-8.47399 -53.29391,-43.52725 -40.25704,-72.25205 5.30599,-11.69096 22.96388,-29.62097 38.61451,-39.20959 l 12.99015,-7.95864 0.059,-15.91727 c 0.1255,-33.85237 -8.66362,-73.84488 -26.7601,-121.76455 -6.02852,-15.96361 -10.96095,-30.87782 -10.96095,-33.1427 0,-6.636 20.01742,-23.7888 39.51133,-33.85701 20.90713,-10.79811 51.09109,-21.205524 78.87337,-27.195489 15.7074,-3.386574 29.24504,-4.508442 64.29708,-5.328315 91.64982,-2.143703 133.25888,6.440741 211.92619,43.722904 18.50104,8.76804 21.41613,10.78979 20.6215,14.30201 -0.50899,2.24974 -7.28106,20.41115 -15.04904,40.35868 -24.42056,62.70995 -31.96441,94.53836 -32.6891,137.91919 l -0.39927,23.90009 12.93279,4.58373 c 19.16336,6.792 29.28019,12.51907 40.26411,22.79326 14.03959,13.13238 18.25786,22.13298 18.35301,39.16012 0.0563,10.06925 -1.02458,16.1324 -3.90151,21.88625 l -3.97931,7.95864 -11.58055,-0.6808 c -19.69681,-1.15795 -25.95813,3.54628 -33.36171,25.06518 -5.11696,14.8727 -4.82357,19.73577 2.08658,34.58459 3.70341,7.95804 7.44343,21.52483 10.07167,36.53465 6.26247,35.7647 17.05828,55.38584 45.05049,81.87843 l 10.83097,10.25068 -3.09269,7.40181 c -5.46913,13.08951 -4.47181,15.38794 13.32202,30.70223 9.02808,7.77003 24.24328,19.51988 33.81155,26.11081 19.7024,13.5716 21.67437,17.22171 16.55134,30.63621 -5.5765,14.60184 -37.91687,42.55068 -68.76723,59.42924 -16.3168,8.9271 -32.75526,13.23316 -50.65692,13.26957 l -14.00699,0.0285 -39.92778,-40.5805 c -40.61821,-41.28224 -47.95428,-50.76342 -44.40686,-57.39183 2.20782,-4.12534 20.11847,-13.42017 62.01775,-32.18441 68.03875,-30.47059 74.64394,-35.62174 61.95177,-48.31391 -4.47634,-4.47633 -6.25782,-4.97821 -13.93534,-3.92589 -4.84157,0.66361 -27.55725,8.83366 -50.47927,18.15567 -22.92205,9.32201 -43.88979,16.94911 -46.59499,16.94911 -5.68983,0 -4.52902,3.01111 -19.17574,-49.74147 -5.62094,-20.24478 -11.51773,-38.82322 -13.10397,-41.28542 -3.75009,-5.82103 -14.25429,-5.99409 -21.42576,-0.35301 -4.56539,3.59114 -5.24247,5.58491 -5.24247,15.43715 0,6.22238 3.61783,31.42415 8.03963,56.00396 4.4218,24.57979 7.77935,46.40499 7.46122,48.50046 -0.61625,4.05923 1.243,5.33239 -30.21227,-20.68823 -15.85878,-13.1188 -19.22987,-9.02302 -10.89931,13.24235 4.70819,12.5838 24.03484,36.04108 83.55817,101.41692 24.486,26.89354 45.60744,50.84 46.93655,53.21438 6.35085,11.34535 -0.29861,19.51499 -18.95214,23.28498 -58.34251,11.79129 -254.56016,63.92123 -288.05569,76.5289 -18.39806,6.92503 -25.85817,8.71248 -28.79278,6.89879 z m 140.47715,-334.9541 c 15.12117,-4.71231 28.24715,-14.44765 39.04942,-28.96241 13.35834,-17.94929 37.63086,-67.62346 47.69686,-97.61255 8.03562,-23.94001 8.35398,-25.83868 8.50768,-50.7363 l 0.15958,-25.86557 -5.2152,0.33948 c -8.70145,0.56642 -24.3431,9.22342 -28.80218,15.94081 -2.31179,3.48258 -4.76416,10.42438 -5.44974,15.4262 -2.65655,19.38165 -15.31448,34.43871 -33.48852,39.83582 -19.64918,5.83519 -31.98417,2.28876 -47.33558,-13.60943 -7.81315,-8.0915 -9.87866,-9.18623 -17.33236,-9.18623 h -8.46211 l -3.1822,10.44571 c -3.92381,12.87999 -5.86035,29.35152 -4.21945,35.88932 0.86319,3.43925 4.49481,6.50271 12.1468,10.24649 6.00352,2.93723 13.84841,8.72517 17.43312,12.86207 9.46914,10.92784 16.85672,14.98897 29.30869,16.11174 l 11.03313,0.99483 -10.45735,10.55209 c -16.87961,17.03254 -30.62333,20.17023 -53.39767,12.1907 -15.42415,-5.40423 -27.27701,-4.37764 -38.83086,3.36312 -7.69305,5.15416 -8.80734,6.84023 -9.34136,14.13464 -1.07699,14.71096 6.27637,23.80307 23.93227,29.59116 11.48664,3.76565 62.05438,2.47126 76.24703,-1.95169 z M 451.8841,518.7762 c 26.0201,-14.36341 36.45407,-28.71673 40.23016,-55.34195 2.56639,-18.0956 5.94759,-23.9416 13.84729,-23.9416 10.413,0 17.84066,16.26236 17.9479,39.29576 0.0474,10.15932 0.20494,10.44571 5.7493,10.44571 12.87962,0 22.55519,-15.9311 26.46447,-43.57454 2.03013,-14.35547 1.88606,-16.35963 -1.61089,-22.40682 -4.49119,-7.76648 -19.77364,-16.59824 -44.08843,-25.47878 -23.23804,-8.48727 -40.95054,-7.80018 -46.08175,1.78755 -1.18677,2.21751 -2.96521,12.33302 -3.9521,22.47891 -1.56636,16.10342 -16.31632,70.75955 -25.8199,95.67585 -4.54253,11.90954 -2.56054,12.03087 17.31395,1.05991 z M 250.7542,504.97023 c 9.36078,-4.53146 8.97059,-3.64626 13.51358,-30.65855 4.50405,-26.78095 5.4179,-24.87074 -11.89812,-24.87074 h -14.92244 l 0.0179,19.39918 c 0.0179,20.48793 1.79306,40.29059 3.61099,40.29059 0.59638,0 4.9518,-1.87221 9.67869,-4.16048 z m 51.31191,-83.47112 c 10.39738,-3.33059 40.17835,-16.66624 66.17995,-29.6348 60.57795,-30.21384 78.46162,-36.55584 123.8775,-43.93005 17.8355,-2.89597 21.88624,-4.76458 21.88624,-10.09609 0,-10.91809 -41.42016,-17.60844 -67.29424,-10.86962 -16.81136,4.37846 -177.39293,83.77528 -185.17355,91.55592 -2.3471,2.3471 -2.40136,3.41603 -0.30175,5.94588 4.06043,4.89255 19.86825,3.74207 40.82585,-2.97124 z m 21.83155,-67.87839 c 6.47689,-2.95106 9.06536,-12.10037 8.91689,-31.51794 -0.21359,-27.93647 -2.96214,-48.15592 -6.94168,-51.06583 -7.0491,-5.15442 -64.97444,-2.25874 -68.71563,3.43508 -1.05695,1.60859 -1.64631,18.251 -1.34485,37.97658 0.70229,45.95605 -1.32474,43.47837 35.57036,43.47837 16.57692,0 29.45855,-0.91367 32.51491,-2.30626 z m 200.02657,-54.30994 c 1.02151,-2.68678 6.02399,-21.26522 11.11663,-41.28542 5.09261,-20.0202 14.08348,-49.71437 19.97969,-65.98704 5.89622,-16.27267 10.72038,-31.25267 10.72038,-33.28888 0,-4.82328 -6.72321,-6.44406 -22.43479,-5.4084 -15.81323,1.04236 -31.60806,8.31606 -42.89265,19.75255 -21.1678,21.45277 -45.30622,92.27873 -39.42965,115.69288 1.71013,6.81373 8.89605,9.54476 19.08855,7.25466 8.82235,-1.98226 18.80974,-0.14604 27.96844,5.14179 7.73068,4.46345 13.74408,3.75467 15.8834,-1.87214 z"
     id="path830" />
  <path
     style="fill:#0000cc;fill-opacity:1;stroke-width:0.0879313"
     d="m 287.80679,336.78864 c -4.95153,-0.4737 -7.76938,-2.49862 -9.22799,-6.63128 -1.3013,-3.68692 -1.88499,-10.12877 -1.89226,-20.88369 -0.003,-3.80497 0.0225,-4.76027 0.15704,-5.97933 0.66621,-6.03681 2.23749,-10.18089 4.8513,-12.79469 1.65392,-1.65392 3.68668,-2.67092 6.15587,-3.07981 2.2458,-0.3719 8.98703,-0.34622 11.16728,0.0425 1.89269,0.33748 3.05938,0.88341 4.04484,1.89269 1.85376,1.89858 2.57484,5.10964 2.94262,13.10393 0.2878,6.25569 0.33347,15.24643 0.0927,18.24575 -0.38235,4.76269 -1.03724,7.67586 -2.25347,10.02417 -1.70523,3.29247 -4.48012,5.11508 -8.82755,5.79814 -2.09073,0.32849 -5.29563,0.44477 -7.21036,0.26159 z"
     id="path832" />
</svg>
