<?xml version="1.0" encoding="UTF-8" standalone="no"?>
<svg
   xmlns:dc="http://purl.org/dc/elements/1.1/"
   xmlns:cc="http://creativecommons.org/ns#"
   xmlns:rdf="http://www.w3.org/1999/02/22-rdf-syntax-ns#"
   xmlns:svg="http://www.w3.org/2000/svg"
   xmlns="http://www.w3.org/2000/svg"
   xmlns:sodipodi="http://sodipodi.sourceforge.net/DTD/sodipodi-0.dtd"
   xmlns:inkscape="http://www.inkscape.org/namespaces/inkscape"
   id="svg2"
   sodipodi:version="0.32"
   inkscape:version="1.0.1 (3bc2e813f5, 2020-09-07)"
   width="210mm"
   height="297mm"
   sodipodi:docname="sergeant-red.svg"
   version="1.0">
  <metadata
     id="metadata7">
    <rdf:RDF>
      <cc:Work
         rdf:about="">
        <dc:format>image/svg+xml</dc:format>
        <dc:type
           rdf:resource="http://purl.org/dc/dcmitype/StillImage" />
        <dc:title></dc:title>
      </cc:Work>
    </rdf:RDF>
  </metadata>
  <defs
     id="defs5" />
  <sodipodi:namedview
     inkscape:window-height="1001"
     inkscape:window-width="1920"
     inkscape:pageshadow="2"
     inkscape:pageopacity="0.0"
     borderopacity="1.0"
     bordercolor="#666666"
     pagecolor="#ffffff"
     id="base"
     inkscape:zoom="4.2919518"
     inkscape:cx="353.3086"
     inkscape:cy="664.90136"
     inkscape:window-x="-9"
     inkscape:window-y="-9"
     inkscape:current-layer="layer2"
     inkscape:document-rotation="0"
     showgrid="false"
     inkscape:window-maximized="1" />
  <g
     inkscape:groupmode="layer"
     id="layer2"
     inkscape:label="Vector">
    <path
       style="fill:#cc0011;fill-opacity:1;stroke-width:0.931977"
       d="m 220.85663,800.20226 c 0.33498,-1.73469 9.04041,-39.56167 19.34539,-84.05996 10.30498,-44.49829 18.45992,-81.18237 18.1221,-81.5202 -0.33784,-0.33783 -4.89053,-0.68489 -10.11712,-0.77125 -23.7205,-0.39195 -38.95111,-6.13476 -47.63148,-17.95978 -4.36292,-5.94348 -5.87727,-9.7036 -7.6307,-18.94689 -1.1422,-6.02118 -1.23324,-8.77467 -0.44062,-13.32623 1.3165,-7.55989 1.26364,-10.71013 -0.17972,-10.71013 -1.84123,0 -8.21575,-3.62162 -12.49751,-7.10034 -2.3329,-1.89536 -5.03809,-5.45734 -6.75683,-8.89684 -2.39388,-4.79058 -2.86631,-6.82823 -2.86631,-12.36271 0,-14.76857 8.63676,-34.27808 20.70163,-46.76272 l 4.59837,-4.75837 -4.46364,-8.72026 c -5.27472,-10.30483 -6.3668,-17.59227 -3.56877,-23.81448 1.03147,-2.29378 8.84973,-10.76985 21.3874,-23.18692 23.57851,-23.35171 23.74274,-23.63376 24.47719,-42.03621 l 0.45022,-11.28098 -3.80759,-0.60886 c -5.01302,-0.80161 -9.5968,-4.92778 -12.30055,-11.07255 -1.92633,-4.37795 -2.12212,-6.0409 -1.83877,-15.6174 0.3847,-13.00126 0.44807,-49.40488 0.10669,-61.27749 l -0.24789,-8.62078 -4.3406,-0.18196 c -9.35166,-0.39204 -11.14499,-0.57844 -19.30668,-2.00676 -28.47007,-4.98236 -56.73951,-21.52302 -75.90254,-44.41116 l -3.74654,-4.47483 11.88116,-13.37269 c 6.53464,-7.35497 19.33041,-20.98352 28.43505,-30.28568 9.10463,-9.30215 16.5489,-17.06086 16.54282,-17.24157 -0.006,-0.18071 -0.60726,-2.56845 -1.33593,-5.30606 -1.37048,-5.14884 -0.99408,-13.27272 0.84889,-18.32193 2.76436,-7.57356 3.68991,-9.55438 6.04816,-12.94399 7.25776,-10.43188 16.60054,-15.75966 28.00111,-15.96781 l 6.98982,-0.12762 1.13031,-7.38175 c 2.63322,-17.197011 8.06644,-23.498047 23.31422,-27.038025 15.19641,-3.528055 28.99735,-1.199063 58.40692,9.856516 32.77699,12.321459 41.40618,14.230249 64.40091,14.245599 27.50788,0.0184 39.51211,-3.30666 73.24563,-20.288146 28.81556,-14.50578 38.37649,-17.401797 49.64926,-15.038826 7.43889,1.559321 9.40135,3.155838 15.08588,12.272834 13.89783,22.289718 30.5289,75.923488 41.46079,133.707448 1.60006,8.45769 2.92629,16.0067 2.94716,16.77559 0.0209,0.76888 0.43601,3.49491 0.92253,6.05785 1.00722,5.30594 1.25752,7.10447 2.07523,14.91163 0.32212,3.07552 0.80712,6.69075 1.07778,8.03385 0.27064,1.3431 0.66972,4.27883 0.88682,6.52384 0.21711,2.24501 0.61025,6.17879 0.87365,8.74173 0.49937,4.85894 0.98091,10.4315 2.05365,23.76541 0.81554,10.13702 0.79601,64.58067 -0.0262,73.16019 -0.34388,3.58811 -0.82104,8.62079 -1.06035,11.18372 -0.23933,2.56294 -0.82685,7.26086 -1.30564,10.43982 -1.04703,6.95195 -0.8916,8.21 2.04934,16.58751 1.25961,3.58811 2.99346,9.66926 3.853,13.51367 0.85955,3.8444 1.88686,8.24799 2.28294,9.78576 1.24903,4.84947 0.51815,28.37007 -1.10051,35.41512 -5.21873,22.71406 -13.34321,36.89738 -39.7722,69.43228 -5.20486,6.40734 -10.88579,13.78961 -12.62429,16.40503 -2.95608,4.44717 -9.75642,17.04264 -9.76043,18.07812 -9.3e-4,0.25629 1.43687,0.49628 3.19526,0.53332 7.22377,0.15214 9.4146,4.87732 9.25915,19.97017 -0.066,6.40734 -0.47232,14.58544 -0.90296,18.17355 -1.41128,11.75873 -0.95792,41.64056 0.95442,62.90844 0.2535,2.81923 0.70313,8.0616 0.99919,11.64971 0.59763,7.24325 1.23929,14.62219 1.82346,20.96948 2.47513,26.89349 2.48661,28.77757 0.18437,30.25096 -2.62038,1.67701 -17.96879,6.35731 -30.8978,9.42189 -14.65379,3.47341 -51.61179,11.55518 -55.35437,12.10459 -1.74001,0.25543 -4.88543,0.88666 -6.98983,1.40272 -4.73807,1.16194 -6.66667,1.55496 -10.81599,2.20417 -1.79406,0.28069 -8.50429,1.56287 -14.91163,2.84927 -6.40734,1.28641 -12.90788,2.54199 -14.44564,2.79017 -1.53777,0.24819 -4.89288,0.8858 -7.45582,1.41692 -2.56294,0.53111 -6.20013,1.18347 -8.08265,1.44969 -1.88253,0.26621 -7.54429,1.31045 -12.58169,2.32053 -5.03741,1.01007 -10.83648,2.05758 -12.88683,2.32778 -2.05035,0.2702 -4.35699,0.72485 -5.12587,1.01033 -0.76888,0.28549 -2.94482,0.70661 -4.83543,0.93583 -1.89061,0.22923 -6.5039,1.03988 -10.25175,1.80146 -3.74785,0.76157 -8.43094,1.60836 -10.40686,1.88177 -1.97593,0.27339 -7.84738,1.31795 -13.04768,2.32124 -5.2003,1.00328 -11.11623,2.05686 -13.14651,2.34129 -2.03028,0.28443 -5.59509,0.92592 -7.92181,1.42552 -2.32671,0.49961 -4.85947,0.95405 -5.62835,1.00988 -0.76888,0.0558 -6.85003,1.09176 -13.51366,2.30208 -16.19763,2.942 -15.11701,2.76117 -21.34399,3.57182 l -5.50038,0.71606 0.60908,-3.154 z m 51.88878,-71.11307 c 2.3199,-0.28571 6.3041,-0.95094 8.85378,-1.47828 2.54966,-0.52735 6.31332,-1.17565 8.36367,-1.44067 2.05035,-0.26503 4.35699,-0.71363 5.12587,-0.99688 0.76888,-0.28326 2.86583,-0.70065 4.65989,-0.92753 4.35814,-0.55115 29.50477,-5.61307 64.75801,-13.03554 17.98726,-3.78716 29.99059,-6.76824 31.83015,-7.90515 11.32255,-6.99772 19.90848,-28.53091 17.3445,-43.49934 -1.84953,-10.79747 -7.11696,-18.1844 -12.97689,-18.19854 -4.23002,-0.0102 -14.41787,1.66503 -26.86361,4.41729 -2.4127,0.53356 -5.81644,1.21334 -9.31977,1.86132 -1.53776,0.28443 -3.63471,0.70034 -4.65988,0.92426 -1.02517,0.22392 -3.54151,0.65342 -5.59186,0.95444 -2.05035,0.30103 -4.56669,0.81985 -5.59186,1.15295 -1.94459,0.63181 -2.45827,0.73389 -8.10616,1.61086 -11.14766,1.73095 -66.30901,13.61698 -67.40124,14.52345 -5.28585,4.38686 -17.38142,59.16442 -13.84511,62.70073 0.57632,0.57632 5.21722,0.34692 13.42051,-0.66337 z m 44.71077,-119.40452 c 8.45769,-1.79614 16.63579,-3.46233 18.17355,-3.70267 1.53776,-0.24033 5.94135,-1.07842 9.78576,-1.86242 3.8444,-0.784 8.27044,-1.6206 9.83563,-1.85911 1.56519,-0.23853 9.95299,-1.69831 18.63954,-3.24397 8.68655,-1.54567 17.26159,-3.0002 19.05565,-3.23228 1.79406,-0.23208 9.76246,-1.50477 17.70756,-2.82817 7.94511,-1.32342 16.3329,-2.63317 18.63954,-2.91056 2.30664,-0.27738 11.68505,-1.62565 20.84092,-2.99615 l 16.64701,-2.4918 2.34037,-5.86535 c 1.2872,-3.22593 2.18382,-6.00313 1.99252,-6.17155 -0.19132,-0.16841 -9.8365,-6.86055 -21.43374,-14.87141 l -21.0859,-14.56521 -5.09929,2.25515 c -6.81502,3.01392 -15.51799,4.63853 -20.69204,3.86264 -5.74879,-0.86209 -14.49792,-6.88905 -20.21959,-13.92856 -2.54917,-3.13629 -5.41502,-6.63749 -6.36855,-7.78045 l -1.73371,-2.07808 -6.29113,2.85253 c -13.9047,6.30469 -29.12712,8.20396 -38.64108,4.82116 -5.78859,-2.0582 -11.3194,-5.33885 -16.14764,-9.57809 l -3.25868,-2.86116 6.3131,-9.98478 c 18.1407,-28.69122 32.47975,-58.01951 44.52395,-91.06676 6.0916,-16.7143 18.12914,-55.40018 17.53667,-56.35882 -0.47602,-0.77023 -33.89605,-0.47262 -43.81885,0.39021 -5.67935,0.49385 -10.95039,1.22021 -20.0375,2.76122 -1.28147,0.21732 -3.98338,0.65382 -6.00425,0.97001 -11.55884,1.80854 -52.28024,12.14174 -54.34126,13.78929 -1.27006,1.01526 -1.54695,5.21542 -0.45172,6.85212 0.3766,0.56277 14.10519,7.86305 30.50798,16.22283 16.40279,8.3598 29.94852,15.29402 30.10161,15.4094 0.1531,0.11538 9.4e-4,1.31365 -0.33732,2.66282 -1.19602,4.76533 -5.11523,7.64808 -14.47326,10.64572 -12.43342,3.98279 -26.89175,7.55256 -33.21844,8.20168 -5.2777,0.54148 -5.43541,0.48807 -8.98272,-3.04185 -1.98589,-1.97615 -5.28654,-5.79479 -7.33479,-8.48588 -2.04825,-2.69108 -4.022,-4.89288 -4.38611,-4.89288 -0.36411,0 -1.9486,1.78241 -3.52109,3.9609 -1.57248,2.1785 -7.57844,8.99358 -13.34658,15.14463 -19.28748,20.56789 -20.98517,23.68443 -17.96435,32.97827 1.59338,4.90222 1.87744,5.22088 4.49676,5.04441 1.53776,-0.10361 6.57043,-0.45983 11.18372,-0.79161 18.95447,-1.36317 35.8689,6.10556 41.84839,18.47855 2.54589,5.26806 2.77537,8.27049 1.85025,24.20791 -0.46111,7.94355 -0.2857,9.58676 1.3936,13.05573 1.95578,4.04012 8.28142,9.07821 11.39825,9.07821 1.97612,0 -7.89697,9.53758 -14.47461,13.98274 -7.65603,5.17393 -24.81637,11.62421 -35.95803,13.51603 -5.64538,0.95857 -11.85761,1.59845 -14.33461,1.4765 -5.56364,-0.2739 -6.31898,0.62348 -7.77394,9.23579 -2.24572,13.29307 -0.25716,19.33938 7.66291,23.29942 4.35872,2.17936 5.56335,2.32821 18.63954,2.30311 13.11818,-0.0252 14.35295,-0.18442 20.0375,-2.58406 10.76004,-4.5422 26.15315,-14.99044 43.1783,-29.30774 4.52605,-3.80618 8.39377,-6.75573 8.59495,-6.55455 0.46813,0.46813 -3.36777,18.92874 -6.4334,30.96133 -2.20857,8.66864 -2.36351,10.79738 -0.78295,10.75754 0.35419,-0.009 7.56391,-1.4858 16.0216,-3.28193 z m 168.43911,-60.30926 c 1.57476,-2.1785 6.74167,-8.57419 11.48205,-14.21265 21.04022,-25.02639 30.59696,-41.8259 34.91067,-61.36846 2.32206,-10.51975 1.56961,-25.42237 -1.80986,-35.8448 -2.76649,-8.53201 -3.29943,-9.1528 -17.98331,-20.94819 -34.34493,-27.58887 -78.00035,-47.61892 -112.29099,-51.52156 -3.38384,-0.38512 -3.48322,-0.3065 -4.50315,3.5626 -4.19436,15.9114 -19.26033,56.43201 -30.23204,81.31051 -7.41492,16.8134 -19.85826,41.12022 -26.98558,52.7136 -7.3666,11.98261 -7.28605,12.13006 6.35561,11.63415 13.86352,-0.50397 23.66312,-4.37917 36.13317,-14.28867 6.68276,-5.31054 16.08367,-15.78006 21.98651,-24.48573 7.82003,-11.5332 14.71714,-29.69188 15.68849,-41.30459 0.25208,-3.01372 0.86053,-6.23099 1.3521,-7.1495 0.51156,-0.95586 3.88829,-2.6411 7.89621,-3.9408 5.80052,-1.88102 8.64102,-2.23997 16.54903,-2.0913 15.82784,0.29756 26.12617,4.93028 30.64354,13.78505 4.31198,8.45221 5.23774,13.14904 4.95928,25.16107 -0.57374,24.74935 -8.91887,44.09365 -27.34046,63.3761 -3.8037,3.98146 -6.61566,7.54627 -6.2488,7.9218 1.29905,1.32975 34.57591,21.52997 35.56735,21.59065 0.55384,0.0339 2.29542,-1.72079 3.87018,-3.89928 z m -254.64698,0.31533 c 4.1007,-0.99541 10.46478,-2.92588 14.1424,-4.28994 l 6.68658,-2.48012 -1.44963,-3.87896 c -0.97457,-2.60776 -1.63875,-8.88667 -2.0267,-19.1596 l -0.57706,-15.28064 -2.63128,-1.96093 c -2.33729,-1.74184 -3.89922,-1.96094 -13.97965,-1.96094 -10.16413,0 -11.83466,0.23884 -16.00826,2.28874 -7.32171,3.59612 -14.79963,11.70162 -19.11289,20.71692 -2.03923,4.26227 -4.19805,10.21175 -4.79738,13.22108 -0.94565,4.74829 -0.87973,5.86136 0.49878,8.42109 0.87366,1.62228 2.49365,3.51489 3.59998,4.20582 5.14767,3.21477 22.74015,3.29246 35.65511,0.15748 z M 425.14758,524.0461 c 27.48471,-13.58367 47.4775,-47.84238 38.39598,-65.79355 -4.14709,-8.19746 -14.56668,-13.02875 -25.34566,-11.75214 -6.67655,0.79074 -8.61488,2.68056 -12.15036,11.84631 -4.34031,11.25223 -7.17166,16.62766 -14.9342,28.35324 -11.25909,17.00719 -15.32577,26.6688 -14.06158,33.40748 1.09029,5.81178 5.34821,7.99127 14.84748,7.59996 5.12279,-0.21103 7.71881,-0.92846 13.24834,-3.6613 z M 251.01153,288.26832 c 11.43852,-1.38036 26.62807,-7.49275 36.98412,-14.88268 7.68765,-5.48579 20.35987,-18.92676 26.49896,-28.10651 2.72813,-4.07936 7.71927,-12.98567 11.09143,-19.79183 l 6.13119,-12.37481 3.35422,0.47615 c 1.84481,0.26189 5.24146,0.86889 7.54811,1.34891 20.16369,4.19607 61.5648,4.42688 92.7317,0.51696 2.05035,-0.25722 4.35699,-0.50954 5.12587,-0.56074 3.78293,-0.25183 22.93955,-3.95183 30.95292,-5.97839 16.82774,-4.25567 32.52784,-10.94111 37.08435,-15.7913 l 2.08023,-2.2143 -3.43536,-11.47297 c -8.41442,-28.10141 -11.86588,-38.1673 -12.93239,-37.71619 -0.60118,0.25428 -5.07725,2.2105 -9.94683,4.34715 -16.07646,7.05397 -44.41129,15.5263 -57.78257,17.27744 -1.79406,0.23496 -6.19765,0.87306 -9.78576,1.418 -3.58811,0.54495 -8.83048,1.24145 -11.64971,1.5478 -6.49603,0.70587 -46.31038,0.68572 -53.12268,-0.0269 -10.84598,-1.13455 -26.04657,-3.65697 -35.88112,-5.95418 -15.40555,-3.59853 -13.96884,-4.13101 -18.08284,6.70193 -11.79315,31.0536 -32.48759,56.18896 -56.01735,68.03835 -3.45387,1.73934 -6.51729,3.78142 -6.80759,4.53794 -0.74583,1.94359 -0.77607,46.67621 -0.0329,48.61295 0.62857,1.63804 2.66143,1.64407 15.89397,0.0472 z m -35.59959,-29.40377 c -0.29479,-1.34221 -0.74016,-4.93929 -0.9897,-7.9935 -0.68217,-8.34955 -1.23788,-14.10128 -2.69755,-27.92056 -0.27071,-2.56294 -0.70029,-6.96653 -0.95464,-9.78576 -0.25435,-2.81923 -0.68267,-7.43251 -0.95185,-10.25174 -0.26917,-2.81924 -0.68228,-7.97618 -0.91803,-11.45988 -0.23574,-3.4837 -0.6229,-6.64832 -0.86033,-7.0325 -0.23743,-0.38417 2.04761,-3.12618 5.07788,-6.09335 10.36597,-10.15016 14.40971,-23.23354 9.68257,-31.32753 -2.80548,-4.80362 -8.70318,-8.56853 -14.2588,-9.10236 -11.72512,-1.12663 -21.17366,9.74735 -22.23316,25.58734 -0.25451,3.80495 0.0192,8.80038 0.61105,11.15068 l 1.07211,4.25773 -25.66942,25.94373 c -14.11818,14.26905 -25.66941,26.33281 -25.66941,26.80835 0,0.47554 2.20179,2.73636 4.89288,5.02404 19.65396,16.70774 41.06755,24.80443 65.277,24.68188 l 9.1254,-0.0462 z"
       id="path831" />
    <path
       style="fill:#cc0011;fill-opacity:1;stroke-width:0.0823759"
       d="m 363.31498,699.07226 c -6.61305,-0.80732 -12.3242,-4.51029 -15.67486,-10.16318 -4.09495,-6.90859 -3.83937,-15.57654 0.65552,-22.23185 3.34253,-4.94909 8.55213,-8.23867 14.3709,-9.07444 1.14038,-0.16379 3.88867,-0.166 5.27154,-0.004 6.14631,0.71897 11.50542,3.99294 14.97059,9.14578 3.60417,5.35952 4.50506,11.9607 2.4733,18.1227 -1.38249,4.19285 -4.23375,8.01822 -7.85715,10.54147 -2.6146,1.82074 -5.41556,2.95963 -8.64497,3.5151 -1.12787,0.19399 -4.4636,0.28311 -5.56487,0.14866 z"
       id="path833" />
  </g>
</svg>
