<svg xmlns="http://www.w3.org/2000/svg" xmlns:svg="http://www.w3.org/2000/svg" id="svg2" width="210mm" height="297mm" version="1.0"><metadata id="metadata7"/><g id="layer2"><path style="fill:#00c;fill-opacity:1;stroke-width:1.4069" id="path835" d="m 201.23799,883.82243 c 0,-31.46071 -5.13618,-70.09723 -16.39974,-123.36585 -3.93544,-18.61179 -5.99769,-31.44939 -5.42417,-33.76563 0.50894,-2.05538 4.71983,-10.36247 9.35754,-18.4602 7.86534,-13.73339 8.26041,-14.84029 5.87685,-16.46576 -8.74171,-5.96139 -11.92715,-8.91137 -15.90542,-14.72969 -8.98073,-13.13456 -6.85152,-24.8645 7.18614,-39.58888 l 8.34661,-8.75492 -4.12404,-9.14486 c -2.26823,-5.02967 -4.54918,-10.58871 -5.06878,-12.35342 -1.51759,-5.15412 4.8518,-14.16396 20.34572,-28.78011 7.75446,-7.31514 14.09901,-13.71479 14.09901,-14.2214 0,-0.50662 -3.23242,-0.92112 -7.18315,-0.92112 -17.88581,0 -40.64725,-9.83293 -52.56892,-22.70977 -7.62578,-8.23674 -11.80798,-17.11559 -10.12624,-21.49811 0.46686,-1.21665 3.56009,-3.42327 6.87383,-4.90363 21.85751,-9.76446 34.79881,-16.36568 42.03506,-21.44161 4.56902,-3.20499 8.30046,-6.21034 8.29208,-6.67858 -0.008,-0.46823 -0.97598,-4.01685 -2.15023,-7.88583 -3.34001,-11.0048 0.1615,-23.81738 8.72264,-31.9175 7.93142,-7.50431 17.06221,-8.64039 27.12937,-3.37549 l 6.25198,3.26964 17.6056,-21.97466 c 30.45361,-38.01107 50.65724,-56.9625 76.65452,-71.90352 l 11.3492,-6.52256 3.32901,-10.46407 c 3.23124,-10.15676 5.91702,-33.67796 3.84553,-33.67796 -0.56457,0 -4.29416,2.89174 -8.288,6.42605 -8.50119,7.5231 -31.56075,19.17887 -44.35161,22.4181 -20.09407,5.08877 -42.85301,4.11551 -55.57889,-2.37674 -7.8616,-4.0107 -18.73411,-14.54493 -25.07891,-24.29863 -16.50345,-25.37032 -15.41717,-61.1846 2.95998,-97.58953 7.2564,-14.37484 20.8954,-33.40176 29.99177,-41.83963 34.62842,-32.12165 89.3432,-50.07508 153.03086,-50.21368 30.73362,-0.0669 52.20611,2.45989 81.7918,9.62483 l 20.59159,4.98679 6.84298,-6.83616 c 11.48604,-11.47458 17.64311,-13.66987 39.87408,-14.21702 47.68865,-1.17371 81.66184,11.26762 103.62157,37.9473 14.18576,17.23479 16.08891,29.55668 7.35764,47.63692 -2.8026,5.80347 -7.94124,14.30289 -11.4192,18.88759 l -6.32357,8.33583 4.56175,7.14009 c 11.71554,18.33724 20.41701,39.94618 26.1029,64.82304 4.63977,20.29985 5.33077,57.72528 1.54618,83.74295 -6.84223,47.03781 -21.32809,85.03969 -50.13115,131.51295 -14.73156,23.76914 -24.19924,43.05593 -30.38779,61.90365 -4.30113,13.09944 -4.62573,15.42642 -4.71002,33.76563 -0.0889,19.33851 -0.008,19.86992 4.42461,29.22874 5.62601,11.87733 15.04354,21.26077 28.36216,28.2595 5.51824,2.89977 10.03319,5.61198 10.03319,6.02714 0,0.41516 -2.67953,4.57476 -5.9545,9.24357 -15.3667,21.90673 -50.42882,39.45346 -86.84936,43.46351 -7.37946,0.8125 -16.08971,1.77962 -19.35615,2.14914 l -5.93893,0.67187 -4.24823,13.26207 c -9.38655,29.30288 -14.12226,62.22342 -14.12226,98.17159 v 23.0701 l -17.23454,1.67294 c -25.25886,2.45187 -79.81887,9.3177 -119.23489,15.00451 -31.55155,4.55214 -150.15606,23.2212 -164.25573,25.85482 l -5.97933,1.11685 z m 41.96342,-6.93247 c 10.58024,-1.61337 19.43685,-3.13239 19.68136,-3.3756 0.24452,-0.24321 3.23019,-11.34084 6.63483,-24.66136 3.40464,-13.32055 7.54285,-27.01327 9.19603,-30.42827 4.11687,-8.50431 10.16054,-12.66701 23.25193,-16.01522 10.28636,-2.63081 104.24714,-18.57706 162.92809,-27.65083 13.85225,-2.14195 25.94263,-4.6512 26.86752,-5.57609 0.92489,-0.92489 2.75251,-7.27297 4.06137,-14.10685 1.30887,-6.83389 2.73374,-14.21836 3.16636,-16.40995 l 0.78659,-3.98471 -18.07521,0.94122 c -77.5724,4.03938 -195.04268,23.84968 -221.53339,37.35959 -14.55644,7.42358 -39.23228,69.27676 -39.23228,98.34077 0,5.1336 0.60009,8.50072 1.51501,8.50072 0.83325,0 10.17156,-1.32004 20.75179,-2.93342 z m 16.09789,-121.4931 c 49.72564,-11.23114 132.79224,-25.21977 193.03456,-32.50754 10.03954,-1.21453 18.45365,-2.40819 18.69804,-2.65258 0.24441,-0.2444 -9.43917,-11.28798 -21.51903,-24.54131 -18.17824,-19.94411 -22.49174,-23.97217 -25.0291,-23.37288 -1.68616,0.39823 -20.89991,4.75058 -42.69724,9.67191 l -39.63153,8.94783 -4.64532,5.45404 c -12.44857,14.61576 -26.42099,25.05372 -39.63605,29.60973 -10.49049,3.61668 -25.00503,3.24044 -34.44146,-0.89276 -7.35177,-3.22012 -17.17333,-12.67817 -17.17333,-16.53772 0,-3.26851 -5.38912,-12.6637 -7.7931,-13.58621 -1.25694,-0.48233 -4.97629,-0.87696 -8.26523,-0.87696 -5.93244,0 -6.04729,0.0976 -14.47437,12.31038 -11.34293,16.43844 -15.89505,25.76351 -15.89505,32.56126 0,4.71728 0.80088,6.23211 5.22129,9.87577 8.55928,7.05529 18.2718,10.92145 28.21925,11.23294 2.52948,0.0792 14.24193,-2.03394 26.02767,-4.6959 z m 309.43465,-55.64857 c 15.14057,-4.70327 38.74291,-20.0275 33.3107,-21.62754 -1.07258,-0.31592 -7.33153,-1.90987 -13.9088,-3.5421 -6.57726,-1.63224 -19.02129,-6.44496 -27.65339,-10.69492 -34.91663,-17.19104 -56.76382,-47.89077 -56.75887,-79.75769 10e-4,-13.03711 2.8261,-26.11413 14.09629,-65.27392 12.68996,-44.09296 16.78109,-66.1794 16.82795,-90.84758 0.0394,-20.75587 -5.03022,-34.2024 -19.35706,-51.34191 -2.8217,-3.37563 -5.54459,-6.13752 -6.05086,-6.13752 -0.50629,0 -2.6751,4.90657 -4.81957,10.90348 -11.28007,31.54426 -23.26692,49.06373 -35.8711,52.42767 -18.1033,4.83161 -39.00124,-6.8077 -43.72586,-24.35354 -1.17513,-4.36408 -1.01955,-7.78351 0.70064,-15.4008 4.00646,-17.74115 9.87114,-26.1396 31.13148,-44.58141 l 5.56269,-4.82524 -5.62761,-1.27925 c -14.20627,-3.22935 -51.76712,1.75467 -77.48461,10.28156 -27.66877,9.17387 -45.54556,21.02073 -73.15147,48.47714 -15.91729,15.83108 -45.23954,49.46638 -44.05243,50.53215 0.29487,0.26474 6.23408,2.08703 13.19824,4.04951 28.44274,8.01512 58.78411,12.34876 86.52443,12.35825 22.49709,0.007 35.19839,-1.87603 59.79331,-8.86787 21.1407,-6.00987 32.45471,-6.09067 43.78983,-0.31269 13.30132,6.78022 19.50567,17.91631 21.17263,38.00238 0.6899,8.313 0.32645,11.06106 -2.22606,16.83143 -4.02146,9.09118 -6.48217,11.67152 -14.90176,15.6262 -5.46674,2.56772 -9.45278,3.30716 -17.88522,3.31783 -13.30719,0.0169 -21.88582,-2.95017 -38.26887,-13.23576 -17.99615,-11.29833 -48.17569,-20.06693 -92.27399,-26.81001 -21.21409,-3.24385 -59.15824,-4.30875 -79.32795,-2.22632 l -16.72083,1.72632 -10.71374,9.17856 c -5.89256,5.0482 -16.56997,13.02662 -23.72758,17.72982 -7.15761,4.70321 -13.01271,8.90736 -13.01132,9.34259 0.005,1.74747 12.41997,8.40474 19.59773,10.50935 11.96346,3.50783 32.73459,2.87785 61.61638,-1.86882 38.17285,-6.27364 52.54306,-7.60339 72.81778,-6.73825 28.79927,1.22892 51.78308,8.48923 71.56815,22.60757 18.44445,13.16169 27.30837,25.96254 38.75515,55.96842 13.44352,35.23997 23.51031,52.91654 38.47164,67.55351 22.97769,22.47951 58.89663,31.52145 88.58393,22.2994 z m -231.02653,-19.60724 9.14486,-2.98158 28.84148,-45.8089 c 15.86281,-25.19489 29.03139,-46.62793 29.2635,-47.62898 0.68121,-2.93783 -13.67231,-14.58154 -24.33935,-19.7443 -19.79718,-9.58168 -17.53873,-9.72871 -59.08985,3.8468 -20.11869,6.57314 -37.93525,12.37367 -39.59235,12.89006 -2.83342,0.88296 -3.11986,0.21998 -4.80829,-11.12888 -0.98746,-6.63727 -2.2818,-12.3684 -2.87631,-12.73582 -0.5945,-0.36742 -3.60065,-0.10186 -6.68033,0.59007 -9.15597,2.05721 -51.31923,37.45385 -53.10928,44.58598 -0.45571,1.81567 0.43281,5.99735 2.05216,9.65815 l 2.85583,6.45609 h 11.96852 c 14.27113,0 24.53558,1.98336 33.41992,6.4576 10.08943,5.08116 14.07322,11.06713 19.88582,29.88014 5.36292,17.35759 8.39505,22.63077 15.65599,27.22731 3.70011,2.34235 6.12157,2.65191 16.30416,2.08437 6.57726,-0.3666 16.07385,-2.00824 21.10352,-3.64811 z M 604.02367,496.44278 c 21.05934,-56.89335 25.59278,-77.11851 25.54374,-113.95901 -0.0426,-31.98016 -4.04213,-54.0664 -14.26726,-78.78647 -4.19634,-10.14501 -13.23382,-26.02768 -14.81014,-26.02768 -0.62161,0 -17.58489,15.35281 -37.69616,34.11736 l -36.56596,34.11736 3.87113,2.69214 c 8.658,6.02113 26.87846,25.94879 32.27055,35.29419 10.67884,18.50825 18.11932,41.9007 22.16058,69.67151 1.95207,13.4144 4.9183,56.04406 4.98561,71.65173 0.016,3.72059 0.53479,5.71843 1.27857,4.92415 0.68837,-0.7351 6.64158,-15.89798 13.22934,-33.69528 z M 468.15323,415.5883 c 5.46685,-3.33328 11.07947,-13.93722 19.55424,-36.9438 3.34317,-9.07576 7.45394,-19.20545 9.13505,-22.51042 4.32601,-8.50473 20.01985,-24.2784 53.307,-53.57812 50.04166,-44.04724 78.79045,-75.94878 97.323,-107.99598 7.48487,-12.94312 9.07837,-19.52863 6.78565,-28.04316 -5.93712,-22.04875 -51.14948,-41.11913 -92.65406,-39.08106 -39.39626,1.93454 -49.21705,22.32251 -75.41656,156.56492 -14.30246,73.28371 -13.70747,71.4351 -27.43377,85.23538 -12.91191,12.98151 -17.33763,20.99952 -17.33763,31.4103 0,8.96558 1.73305,12.4115 7.72807,15.36616 6.24836,3.07951 13.5291,2.91703 19.00901,-0.42422 z m -82.28905,-83.66194 c 19.26908,-6.45378 38.18479,-9.51522 60.15109,-9.73525 l 20.3765,-0.2041 0.88189,-4.92415 c 5.1088,-28.52585 18.6626,-109.81408 18.74939,-112.44846 0.0981,-2.97902 -0.9622,-3.73828 -8.32895,-5.96395 -4.64277,-1.40269 -15.72212,-4.21176 -24.62077,-6.24237 -14.30443,-3.26418 -18.13582,-3.60062 -33.06218,-2.90328 -29.13457,1.36115 -58.79327,11.26467 -74.10916,24.74626 -11.05179,9.72817 -16.80559,25.67025 -12.30203,34.08523 1.96944,3.67992 9.59046,6.82291 16.54399,6.82291 3.02081,0 11.70132,-1.57502 19.29002,-3.50006 7.58872,-1.92503 14.08821,-3.20949 14.44335,-2.85436 0.35513,0.35514 0.94043,6.52018 1.30065,13.70009 0.76162,15.1802 -2.2654,40.79591 -7.07556,59.87579 -1.79866,7.13456 -3.08976,12.97192 -2.86909,12.97192 0.22066,0 5.00454,-1.5418 10.63086,-3.42622 z"/></g></svg>