<svg xmlns="http://www.w3.org/2000/svg" xmlns:svg="http://www.w3.org/2000/svg" id="svg2" width="210mm" height="297mm" version="1.0"><metadata id="metadata7"/><g id="layer2"><path style="fill:#c01;stroke-width:1.00166" id="path831" d="m 375.08221,896.83109 c -36.49323,-3.4782 -76.17323,-15.21061 -115.29646,-34.09034 -6.97192,-3.36444 -12.29846,-6.53698 -12.29846,-7.32508 0,-0.7646 4.30292,-19.35942 9.56204,-41.32181 5.25913,-21.96239 12.24063,-51.54637 15.51446,-65.74217 3.27381,-14.19579 6.83918,-27.54878 7.92304,-29.67331 2.1144,-4.14456 6.76757,-8.57516 10.12508,-9.6408 2.0021,-0.63545 2.01216,-0.74056 0.31793,-3.3246 -12.13704,-18.51134 -31.77326,-53.47436 -39.01726,-69.47169 -8.52985,-18.83692 -10.54905,-26.3656 -10.51414,-39.20236 0.0337,-12.41905 0.94638,-18.50818 5.18717,-34.60997 2.69197,-10.22117 10.65412,-33.81892 15.91006,-47.15333 l 1.96648,-4.98901 -17.75276,-12.01178 c -36.25318,-24.52943 -61.5634,-46.46207 -80.12667,-69.434 -3.00499,-3.71865 -5.82397,-6.76119 -6.26441,-6.76119 -0.44043,0 -1.09681,1.91567 -1.45861,4.25705 -2.69592,17.44636 -10.9357,26.20517 -24.5597,26.10676 -18.78335,-0.13568 -27.48318,-13.16463 -27.29765,-40.88121 0.12049,-18.00126 4.08519,-40.81745 11.70797,-67.37748 l 3.23873,-11.28466 -2.18756,-11.25263 c -3.19896,-16.45521 -5.94243,-38.7607 -4.88899,-39.74943 1.47739,-1.38662 125.42159,-47.03717 183.98318,-67.76381 8.44541,-2.98908 10.88349,-4.2688 11.17824,-5.86732 4.95461,-26.86998 10.3567,-41.78645 21.05475,-58.13726 5.01406,-7.66346 22.32998,-25.01588 29.86395,-29.92692 36.75646,-23.959777 86.60818,-27.356564 132.25472,-9.01154 34.21953,13.75259 55.37623,34.58637 74.73215,73.59147 42.04408,84.72514 33.88989,183.57074 -21.21236,257.13724 l -6.98293,9.32287 1.73335,10.56766 c 1.25767,7.66758 1.59699,13.90541 1.23644,22.73018 -0.56423,13.81067 -2.45579,20.53241 -8.67017,30.8099 l -3.78535,6.26029 4.40083,8.08014 c 16.54738,30.38187 23.23467,51.86652 21.82052,70.10404 -1.95749,25.24459 -8.7749,39.70959 -40.70684,86.37069 -8.72741,12.75308 -15.86801,23.5061 -15.86801,23.89562 0,0.38951 1.13587,1.60169 2.52415,2.69371 3.49164,2.74653 5.19511,6.41033 7.46579,16.05741 2.01932,8.57919 24.06641,120.88203 24.06641,122.58881 0,1.29417 -16.13594,11.00827 -28.66544,17.25704 -43.6829,21.78574 -90.63782,31.94484 -130.21367,28.17282 z m 8.23279,-14.11067 c 1.70945,-0.51598 4.13768,-2.03409 5.39608,-3.37359 2.22757,-2.37115 2.27338,-2.82648 1.73497,-17.24952 -0.94147,-25.22049 -11.62263,-81.21809 -16.56264,-86.83223 -5.09238,-5.78729 -69.79803,-32.45778 -76.38203,-31.48328 -3.84521,0.56914 -6.1439,4.9349 -6.70147,12.72771 -0.49949,6.98111 -0.46282,7.11352 2.88175,10.40669 2.04672,2.01528 8.14554,5.4446 15.40757,8.66357 19.67743,8.72223 32.88175,15.09607 34.71994,16.7596 2.27052,2.0548 3.90423,9.55348 9.32135,42.7849 5.76201,35.34721 7.02821,40.87403 10.00484,43.67043 4.59536,4.31712 13.28338,6.00728 20.17964,3.92572 z m 34.91562,-2.32056 c 9.39976,-2.8289 9.82844,-3.7722 21.17757,-46.59959 9.03253,-34.08536 10.32284,-37.90114 13.60729,-40.23987 1.5063,-1.07258 10.62304,-5.24675 20.25942,-9.27593 19.2616,-8.05369 21.79861,-9.43469 24.27465,-13.21361 2.26183,-3.45198 2.23063,-15.8464 -0.051,-20.25858 -1.51582,-2.93125 -1.94941,-3.13293 -5.88058,-2.73514 -9.34093,0.94517 -46.84717,13.77525 -64.4783,22.05663 -9.12805,4.28746 -9.17063,4.32474 -12.19227,10.67625 -8.66821,18.22067 -20.80844,76.89532 -18.75016,90.62096 1.31787,8.78814 10.37869,12.47643 22.03337,8.96888 z m -6.47151,-126.74153 c 6.81708,-1.83802 15.78131,-6.95461 20.56448,-11.73779 5.3559,-5.3559 8.45594,-11.66343 9.17991,-18.67799 l 0.56078,-5.43345 -6.9184,-0.39092 c -6.58317,-0.37199 -7.29724,-0.6676 -14.73702,-6.10081 -11.39075,-8.31857 -18.29176,-8.91166 -24.74029,-2.12622 -5.57664,5.868 -10.38441,7.44493 -26.35672,8.6449 -7.78051,0.58454 -14.25754,1.13758 -14.39339,1.22898 -0.13587,0.0914 0.47784,2.60926 1.36378,5.59524 4.62475,15.58735 14.33652,25.60259 28.4564,29.34563 6.32287,1.67612 20.17558,1.49793 27.02047,-0.34757 z m -56.37662,-73.6604 c 4.14433,-1.23074 6.73584,-3.13849 13.97187,-10.28549 7.84697,-7.75043 20.011,-17.02588 24.67544,-18.81579 1.36274,-0.52294 1.55137,-1.86512 1.1657,-8.29435 -0.25308,-4.21874 -0.73134,-14.71342 -1.06278,-23.32151 l -0.60264,-15.65108 -4.56611,-0.0917 c -3.87995,-0.0778 -5.66971,0.64649 -11.91017,4.82037 -8.46432,5.66128 -11.91975,6.44331 -24.90672,5.63689 -10.58458,-0.65725 -24.63604,-2.37738 -25.36358,-3.10491 -0.28068,-0.28069 1.3661,-4.4335 3.65954,-9.22846 2.29342,-4.79497 3.83599,-8.99874 3.42792,-9.34173 -1.70696,-1.43469 -38.49338,-14.12647 -39.12097,-13.49722 -0.3771,0.37809 -0.65735,7.29756 -0.62279,15.3766 0.11286,26.38839 6.60766,49.61136 18.18347,65.01729 6.94599,9.24426 20.81473,19.02101 30.07958,21.20457 5.53995,1.30566 7.37033,1.246 12.99224,-0.42353 z m 110.5381,-2.0264 c 11.19836,-3.87314 17.64191,-11.77057 22.91154,-28.08113 4.2812,-13.25121 13.77573,-61.89785 15.56105,-79.72942 l 0.36742,-3.66976 -10.69149,6.96901 c -5.88032,3.83295 -15.30959,9.31569 -20.95394,12.18385 -5.64435,2.86817 -10.2645,5.50648 -10.26699,5.86292 -0.002,0.35644 2.22601,3.96241 4.95223,8.01326 6.54064,9.71861 6.70984,11.07055 1.5003,11.98779 -9.23731,1.62639 -29.63011,3.37182 -43.18145,3.69593 l -8.17713,0.19556 -0.1044,13.77279 c -0.15744,20.76825 2.7512,29.38744 13.32893,39.49763 7.62326,7.28631 15.36855,10.83566 23.64527,10.83566 3.67026,0 8.66915,-0.69035 11.10866,-1.53409 z m -73.69703,-109.9003 c -0.3644,-8.95232 -0.62043,-19.20679 -0.56897,-22.78771 0.0515,-3.58093 -0.30476,-7.12059 -0.79159,-7.86594 -0.70135,-1.07373 -3.56383,-1.23692 -13.78389,-0.78583 -29.79353,1.31504 -46.7309,4.179 -58.90455,9.96023 -7.49043,3.55719 -17.12396,11.637 -16.41404,13.76674 0.70722,2.12166 35.36029,14.25717 53.99195,18.90798 14.3077,3.57147 21.85597,4.7871 30.79403,4.95932 l 6.33959,0.12214 z m 62.10599,-50.91465 c 24.70179,-1.80339 48.91974,-5.58541 60.71447,-9.48154 3.76261,-1.2429 4.91924,-2.21828 6.22277,-5.24763 3.0327,-7.04793 4.03791,-13.31583 3.77666,-23.54922 -0.0677,-2.65285 -0.86922,-4.57393 -2.65219,-6.3569 -2.38421,-2.38421 -3.00409,-2.51434 -9.26534,-1.94518 -97.3514,8.84956 -132.99656,9.67447 -172.98531,4.00321 -35.73369,-5.06778 -59.75675,-14.6697 -94.1558,-37.63367 -19.70604,-13.15528 -33.99882,-24.54065 -57.79238,-46.03637 -28.8602,-26.07308 -31.85596,-27.89568 -31.85596,-19.38101 0,6.16937 4.68597,17.9068 11.82057,29.60819 25.94197,42.54714 67.91455,77.65492 114.71526,95.95309 20.99837,8.20996 59.61254,16.50169 88.82052,19.07267 6.88639,0.60617 14.09832,1.24346 16.02651,1.41619 8.77752,0.78633 53.98273,0.50005 66.61022,-0.42183 z m -0.50082,-59.49409 c 4.68274,-0.39322 9.1902,-0.70476 10.01657,-0.69231 4.12847,0.0622 32.0271,-3.05434 35.7631,-3.99506 3.87893,-0.97673 4.39617,-1.47589 5.40918,-5.21992 2.571,-9.50239 4.0289,-22.27593 4.5866,-40.18586 0.57024,-18.31321 0.52457,-18.9626 -1.23285,-17.529 -1.00376,0.81882 -11.52728,10.14623 -23.38558,20.72757 -11.85829,10.58133 -21.65613,19.1432 -21.77298,19.02636 -0.19311,-0.1931 -0.7796,-16.39815 -1.74065,-48.09515 -0.19732,-6.50831 -0.75826,-12.22769 -1.24653,-12.70972 -0.51121,-0.50468 -10.67773,7.94134 -23.96888,19.91256 l -23.08114,20.78898 -3.32393,-25.10743 c -1.82816,-13.8091 -3.51632,-25.31248 -3.75147,-25.56307 -0.23514,-0.2506 -12.52215,11.63277 -27.30447,26.40748 -14.78231,14.7747 -27.09608,26.47375 -27.36392,25.99788 -0.26784,-0.47586 -2.20863,-9.08066 -4.31285,-19.12178 -2.10421,-10.0411 -4.16482,-18.80502 -4.57911,-19.47536 -1.0192,-1.6491 -4.15581,-0.16858 -14.86353,7.0158 -21.78922,14.61953 -37.89661,37.7091 -36.92512,52.93132 0.30781,4.82315 0.31664,4.83401 6.65181,8.18393 14.95075,7.90569 39.30237,15.02468 58.31745,17.04859 9.55152,1.01665 85.05256,0.75053 98.1083,-0.34581 z m 94.75206,-60.2568 c 44.6805,-66.8786 34.57435,-182.54797 -21.19423,-242.57746 -24.58504,-26.46343 -57.24496,-39.80886 -92.6451,-37.85646 -47.48343,2.61883 -78.14286,19.37459 -93.95497,51.34755 -15.48733,31.31626 -16.00077,72.6219 -1.4672,118.03575 6.66504,20.82662 11.4344,43.38402 14.82481,70.11602 0.83845,6.61094 1.78659,13.26601 2.10696,14.78905 l 0.58249,2.76917 5.84588,-3.11582 c 16.94096,-9.02944 29.61859,-24.60222 34.64919,-42.56192 4.03488,-14.40485 2.72155,-41.55805 -3.05546,-63.17176 -1.3046,-4.88096 -2.19482,-9.0535 -1.97826,-9.27233 0.6864,-0.6936 14.16217,28.04299 17.85206,38.06889 7.74573,21.04613 13.28306,44.94008 14.3088,61.74348 0.70954,11.62328 0.71313,11.62674 8.16677,7.8497 12.74181,-6.45678 21.31568,-21.01639 24.71363,-41.96722 1.76179,-10.86271 1.94714,-32.56886 0.39957,-46.79436 -0.6057,-5.56774 -0.89864,-10.32581 -0.65096,-10.57349 0.24768,-0.24768 2.58378,4.54683 5.19131,10.65447 12.95155,30.33641 19.27827,58.47797 20.31152,90.34664 0.31705,9.77868 0.89966,17.77942 1.29471,17.77942 1.20374,0 8.30899,-5.01696 11.8444,-8.36325 5.58594,-5.2871 12.73829,-16.94631 16.10714,-26.25658 5.03611,-13.91797 7.09165,-28.50476 7.16863,-50.871 l 0.066,-19.18237 3.5657,9.01492 c 10.57549,26.73731 15.47759,68.8658 12.35469,106.17569 -0.69167,8.26367 -1.39421,16.82784 -1.56116,19.03149 l -0.30356,4.00663 5.007,-5.50912 c 2.75386,-3.03001 7.45619,-9.17509 10.44962,-13.65573 z M 154.89574,321.84582 c 32.80891,-8.54691 150.59078,-52.06429 156.26089,-57.7344 2.39533,-2.39532 -0.16984,-14.48269 -5.20953,-24.54787 -3.20208,-6.39513 -4.79928,-7.09173 -12.01996,-5.24237 -26.2808,6.73102 -127.07723,44.1649 -149.78174,55.6261 -7.01747,3.54241 -8.22911,5.864 -7.567,14.49892 0.66433,8.66395 5.77467,19.47102 9.20726,19.47102 0.63722,0 4.73676,-0.93213 9.11008,-2.0714 z"/></g></svg>